<svg width="36" height="54" viewBox="0 0 36 54" fill="none" xmlns="http://www.w3.org/2000/svg">
<path d="M33.9112 0H18.0339C15.8697 0 13.2215 1.50979 12.1193 3.37202L0.479757 23.0387C-0.622314 24.9009 0.238695 26.4107 2.40285 26.4107H14.1152L1.65846 35.4307C-0.0952574 36.6993 0.238695 37.7287 2.40285 37.7287H9.26366L1.43907 52.076C0.402483 53.975 0.94149 54.4304 2.64216 53.0911L22.7168 37.2762C24.4159 35.9369 24.0859 34.8116 21.9763 34.7638C19.8685 34.716 18.1585 34.6756 18.1585 34.6756L31.3505 22.5927C32.9463 21.1307 32.486 19.9847 30.3219 20.0329L18.1585 20.3032L35.1035 2.81469C36.6093 1.25996 36.0754 0 33.9112 0Z" fill="#FFD500"/>
</svg>
