<svg width="301" height="96" viewBox="0 0 301 96" fill="none" xmlns="http://www.w3.org/2000/svg">
<path d="M46.4375 75V20H63.3125C66.125 20 68.25 20.6458 69.6875 21.9375C71.125 23.2083 72.0833 25 72.5625 27.3125C73.0625 29.6042 73.3125 32.3021 73.3125 35.4062C73.3125 38.4062 72.9271 40.8021 72.1562 42.5938C71.4062 44.3854 69.9792 45.625 67.875 46.3125C69.6042 46.6667 70.8125 47.5312 71.5 48.9062C72.2083 50.2604 72.5625 52.0208 72.5625 54.1875V75H61.7188V53.4688C61.7188 51.8646 61.3854 50.875 60.7188 50.5C60.0729 50.1042 59.0208 49.9062 57.5625 49.9062V75H46.4375ZM57.625 40.375H60.2812C61.8021 40.375 62.5625 38.7188 62.5625 35.4062C62.5625 33.2604 62.3958 31.8542 62.0625 31.1875C61.7292 30.5208 61.1042 30.1875 60.1875 30.1875H57.625V40.375ZM76.4375 75V20H87.0625V75H76.4375ZM96.5 75L89.7188 19.9688H100.188L104.219 57.4062L107.812 19.9688H118.281L111.5 75H96.5ZM118.688 75L124 20H142.656L147.875 75H137.469L136.688 66.125H130.062L129.375 75H118.688ZM130.844 57.3438H135.844L133.438 29.375H132.938L130.844 57.3438ZM151.25 75V20H162.25V65.625H173.562V75H151.25ZM181.344 75V56.9062L172.562 20H183.469L186.531 38.625L189.594 20H200.469L191.719 56.9062V75H181.344ZM207.969 75V30.5625H201.438V20H225.5V30.5625H218.969V75H207.969ZM228.062 75V20H238.688V75H228.062ZM255.875 75.5C251.896 75.5 248.688 74.2604 246.25 71.7812C243.833 69.3021 242.625 65.8333 242.625 61.375V36C242.625 30.6667 243.677 26.5833 245.781 23.75C247.906 20.9167 251.354 19.5 256.125 19.5C258.729 19.5 261.042 19.9792 263.062 20.9375C265.104 21.8958 266.708 23.3333 267.875 25.25C269.042 27.1458 269.625 29.5417 269.625 32.4375V41.9375H258.688V33.8125C258.688 32.1667 258.479 31.0625 258.062 30.5C257.646 29.9167 257 29.625 256.125 29.625C255.104 29.625 254.417 30 254.062 30.75C253.708 31.4792 253.531 32.4583 253.531 33.6875V61.2188C253.531 62.7396 253.75 63.8125 254.188 64.4375C254.646 65.0625 255.292 65.375 256.125 65.375C257.062 65.375 257.719 64.9896 258.094 64.2188C258.49 63.4479 258.688 62.4479 258.688 61.2188V51.3125H269.75V61.7188C269.75 66.5521 268.531 70.0625 266.094 72.25C263.656 74.4167 260.25 75.5 255.875 75.5ZM286.5 75.5C281.479 75.5 277.854 74.25 275.625 71.75C273.417 69.25 272.312 65.2708 272.312 59.8125V54.4375H283.188V61.3125C283.188 62.5833 283.375 63.5833 283.75 64.3125C284.146 65.0208 284.823 65.375 285.781 65.375C286.781 65.375 287.469 65.0833 287.844 64.5C288.24 63.9167 288.438 62.9583 288.438 61.625C288.438 59.9375 288.271 58.5312 287.938 57.4062C287.604 56.2604 287.021 55.1771 286.188 54.1562C285.375 53.1146 284.24 51.9062 282.781 50.5312L277.844 45.8438C274.156 42.3646 272.312 38.3854 272.312 33.9062C272.312 29.2188 273.396 25.6458 275.562 23.1875C277.75 20.7292 280.906 19.5 285.031 19.5C290.073 19.5 293.646 20.8438 295.75 23.5312C297.875 26.2188 298.938 30.3021 298.938 35.7812H287.75V32C287.75 31.25 287.531 30.6667 287.094 30.25C286.677 29.8333 286.104 29.625 285.375 29.625C284.5 29.625 283.854 29.875 283.438 30.375C283.042 30.8542 282.844 31.4792 282.844 32.25C282.844 33.0208 283.052 33.8542 283.469 34.75C283.885 35.6458 284.708 36.6771 285.938 37.8438L292.281 43.9375C293.552 45.1458 294.719 46.4271 295.781 47.7812C296.844 49.1146 297.698 50.6771 298.344 52.4688C298.99 54.2396 299.312 56.4062 299.312 58.9688C299.312 64.1354 298.354 68.1875 296.438 71.125C294.542 74.0417 291.229 75.5 286.5 75.5Z" fill="#A1B1FF"/>
<path d="M33.9112 21H18.0339C15.8697 21 13.2215 22.5098 12.1193 24.372L0.479757 44.0387C-0.622314 45.9009 0.238695 47.4107 2.40285 47.4107H14.1152L1.65846 56.4307C-0.0952574 57.6993 0.238695 58.7287 2.40285 58.7287H9.26366L1.43907 73.076C0.402483 74.975 0.94149 75.4304 2.64216 74.0911L22.7168 58.2762C24.4159 56.9369 24.0859 55.8116 21.9763 55.7638C19.8685 55.716 18.1585 55.6756 18.1585 55.6756L31.3505 43.5927C32.9463 42.1307 32.486 40.9847 30.3219 41.0329L18.1585 41.3032L35.1035 23.8147C36.6093 22.26 36.0754 21 33.9112 21Z" fill="#FFD500"/>
<path d="M33.9112 21H18.0339C15.8697 21 13.2215 22.5098 12.1193 24.372L0.479757 44.0387C-0.622314 45.9009 0.238695 47.4107 2.40285 47.4107H14.1152L1.65846 56.4307C-0.0952574 57.6993 0.238695 58.7287 2.40285 58.7287H9.26366L1.43907 73.076C0.402483 74.975 0.94149 75.4304 2.64216 74.0911L22.7168 58.2762C24.4159 56.9369 24.0859 55.8116 21.9763 55.7638C19.8685 55.716 18.1585 55.6756 18.1585 55.6756L31.3505 43.5927C32.9463 42.1307 32.486 40.9847 30.3219 41.0329L18.1585 41.3032L35.1035 23.8147C36.6093 22.26 36.0754 21 33.9112 21Z" fill="#FFD500"/>
</svg>
